<?xml version="1.0" standalone="no"?><!DOCTYPE svg PUBLIC "-//W3C//DTD SVG 1.1//EN" "http://www.w3.org/Graphics/SVG/1.1/DTD/svg11.dtd"><svg t="1609012616283" class="icon" viewBox="0 0 1079 1024" version="1.1" xmlns="http://www.w3.org/2000/svg" p-id="1249" xmlns:xlink="http://www.w3.org/1999/xlink" width="210.7421875" height="200"><defs><style type="text/css"></style></defs><path d="M1010.214446 1024H69.735938A70.264112 70.264112 0 0 1 0.002121 953.205593V331.964785a70.264112 70.264112 0 0 1 69.733817-70.794407h171.020197v53.029518H69.735938a17.234593 17.234593 0 0 0-16.704298 17.764889v621.240808a17.234593 17.234593 0 0 0 16.704298 17.764889H1010.214446a17.234593 17.234593 0 0 0 16.704299-17.764889V331.964785a17.234593 17.234593 0 0 0-16.704299-17.764889h-169.694458v-53.029518h169.694458a70.264112 70.264112 0 0 1 69.733817 70.794407v621.240808a70.264112 70.264112 0 0 1-69.733817 70.794407z" fill="#515151" p-id="1250"></path><path d="M780.066337 66.817193A40.832729 40.832729 0 0 1 821.959656 107.91507V408.327292l-277.609529 159.088555-255.602278-178.974625V106.059037a40.832729 40.832729 0 0 1 40.037286-39.772139h450.750906m0-66.286898H330.641168a106.059037 106.059037 0 0 0-106.059036 106.059037v291.662351l285.563956 172.345935a65.491455 65.491455 0 0 0 66.02175 0l311.548421-177.383739V106.059037a106.059037 106.059037 0 0 0-106.059037-106.059037z m0 0" fill="#515151" p-id="1251"></path><path d="M707.681044 212.118074H369.087569a35.529777 35.529777 0 0 1-28.63594-13.25738 22.00725 22.00725 0 0 1 0-26.514759 35.529777 35.529777 0 0 1 28.63594-13.25738h338.593475a30.491973 30.491973 0 0 1 33.143449 26.514759 30.491973 30.491973 0 0 1-33.143449 26.51476z m0 0M574.8421 335.411704h-205.754531a35.529777 35.529777 0 0 1-28.63594-13.25738 22.00725 22.00725 0 0 1 0-26.514759 35.529777 35.529777 0 0 1 28.63594-13.25738h205.754531a30.491973 30.491973 0 0 1 33.143449 26.51476 30.491973 30.491973 0 0 1-33.143449 26.514759z m0 0" fill="#515151" p-id="1252"></path><path d="M530.297305 626.278612a26.514759 26.514759 0 0 1-14.583118-4.242361L47.46354 314.995339a26.514759 26.514759 0 1 1 29.166235-44.279648l468.250648 306.775764a26.514759 26.514759 0 0 1-14.583118 48.787157z" fill="#515151" p-id="1253"></path><path d="M539.312323 626.278612a26.514759 26.514759 0 0 1-14.583117-48.787157l468.250647-306.775764a26.514759 26.514759 0 1 1 29.166235 44.279648L553.630293 621.771103a26.514759 26.514759 0 0 1-14.31797 4.507509z" fill="#515151" p-id="1254"></path></svg>